<?xml version="1.0" encoding="UTF-8" standalone="no"?>
<!DOCTYPE svg PUBLIC "-//W3C//DTD SVG 1.1//EN" "http://www.w3.org/Graphics/SVG/1.1/DTD/svg11.dtd">
<svg width="144.00" height="108.00" viewBox="0.00 0.00 1200.00 900.00" xmlns="http://www.w3.org/2000/svg" xmlns:xlink="http://www.w3.org/1999/xlink">
<g stroke-linecap="round" id="WORK_Copy_2">
<path d="M465.50,145.50 C465.74,145.44 487.46,149.86 492.09,151.76 C497.24,153.93 510.32,164.79 514.56,168.88 C520.51,174.65 529.37,186.85 533.35,194.13 C535.35,197.81 544.42,217.18 546.16,221.64 C551.26,234.78 559.91,269.15 562.50,281.50 C563.77,287.96 568.53,320.19 570.47,339.65 C571.78,355.68 574.13,387.94 575.16,404.17 C575.81,420.14 575.95,450.38 575.78,464.66 C575.25,479.98 573.91,510.79 573.10,526.28 C571.72,545.71 568.50,568.96 566.41,583.53 C565.13,591.98 562.52,608.53 561.18,616.00 C558.83,628.52 550.36,656.00 544.44,673.31 C541.75,680.86 535.09,694.51 530.19,701.93 C525.99,708.26 514.94,722.21 510.46,726.61 C507.53,729.48 502.39,733.47 499.40,735.30 C493.39,738.92 477.05,744.36 471.50,745.50 C467.22,746.34 462.22,745.71 458.56,744.78 C452.63,743.29 446.12,741.50 443.50,740.50 C438.46,738.56 427.57,731.26 421.91,726.25 C416.10,721.06 406.97,708.72 403.27,702.88 C398.80,695.81 392.61,683.94 389.64,676.94 C386.89,670.40 382.11,655.83 379.58,646.59 C375.53,630.86 366.67,591.93 365.23,582.20 C364.60,577.82 361.11,541.88 359.98,529.05 C358.79,510.84 357.56,481.55 357.02,466.94 C356.53,450.22 356.30,417.41 356.63,401.24 C357.38,384.40 359.90,351.76 361.50,336.36 C363.18,321.82 368.38,286.96 370.75,274.94 C372.31,267.68 375.71,253.63 377.55,246.84 C378.74,242.56 384.99,224.64 387.86,217.35 C391.25,209.21 397.56,196.31 400.50,191.50 C404.83,184.47 414.90,172.21 420.43,167.12 C422.83,164.93 428.66,160.28 432.26,158.07 C436.12,155.71 442.74,152.62 447.67,150.71 C451.02,149.43 456.75,147.32 460.07,147.02 C461.46,146.92 464.18,146.73 464.50,146.50 C464.89,146.23 465.05,145.63 465.50,145.50 Z" fill="inherit" stroke="inherit" stroke-width="24.80" stroke-opacity="1.00" stroke-linejoin="round"/>
<path d="M1079.50,147.50 C1076.55,149.11 1067.94,154.00 1067.50,154.50 C1066.87,155.21 1065.46,157.59 1064.50,157.50 C1063.30,157.39 1057.81,155.40 1057.14,155.37 C1055.36,155.30 1053.06,156.81 1052.41,158.02 C1049.62,163.94 1046.22,175.67 1043.26,185.10 C1034.25,211.46 1013.68,271.23 1002.11,304.64 C990.38,338.69 972.10,392.18 965.55,411.62 C964.39,415.35 962.35,421.19 961.15,421.46 C960.82,421.52 943.89,421.51 943.70,421.48 C942.72,421.29 942.44,420.27 942.48,418.14 C942.50,417.73 942.25,328.89 942.24,290.76 C942.30,252.57 942.42,188.63 942.49,162.89 C942.48,160.92 942.55,158.33 942.50,158.01 C942.28,156.82 941.23,156.40 939.01,156.43 C938.71,156.43 885.07,156.53 885.00,156.54 C883.80,156.77 883.41,157.74 883.49,159.85 C883.52,160.26 883.39,231.76 883.38,259.75 C883.39,293.76 883.45,367.81 883.49,407.85 C883.55,450.85 883.63,531.51 883.66,569.16 C883.65,601.00 883.61,658.86 883.58,684.88 C883.55,695.71 882.58,730.53 882.98,733.56 C883.20,734.95 884.15,736.56 885.14,736.99 C885.58,737.16 904.45,736.14 916.03,736.06 C920.50,736.10 928.56,736.21 932.15,736.28 C937.22,736.46 941.24,737.02 941.50,736.50 C941.62,736.23 942.26,645.53 942.44,606.49 C942.47,576.89 941.72,508.81 942.50,504.50 C943.44,499.59 947.55,491.28 948.34,489.50 C950.19,485.26 950.64,480.02 951.12,478.90 C951.74,477.51 954.28,476.09 956.05,475.90 C959.14,475.67 969.26,476.45 969.50,476.50 C971.41,476.92 972.94,478.06 973.50,479.50 C974.23,481.55 993.04,561.88 1001.01,595.88 C1010.26,635.10 1026.10,701.31 1032.67,728.29 C1032.99,729.54 1033.84,732.81 1033.91,733.20 C1034.33,735.21 1035.21,736.63 1036.47,736.99 C1036.93,737.11 1055.67,736.08 1063.31,735.90 C1072.65,735.84 1089.64,735.96 1095.90,736.28 C1097.93,736.37 1101.05,737.13 1102.53,738.11 C1103.33,738.64 1105.77,741.91 1106.50,742.50 C1106.91,742.83 1107.91,743.50 1109.50,744.50" fill="inherit" stroke="inherit" stroke-width="24.80" stroke-opacity="1.00" stroke-linejoin="round"/>
<path d="M33.50,156.50 C35.84,155.29 86.68,157.40 87.12,157.39 C89.34,157.36 89.58,157.58 89.50,159.50 C89.44,160.41 99.25,245.54 103.46,281.69 C107.36,316.22 114.79,382.68 118.33,414.60 C121.89,447.18 126.76,491.77 128.07,503.79 C128.27,505.52 129.52,510.94 129.50,511.50 C129.50,512.21 129.53,514.95 130.50,515.50 C130.98,515.75 140.28,516.00 145.75,515.77 C148.07,515.67 149.51,515.06 149.70,513.93 C149.71,508.79 158.49,428.70 162.53,392.28 C166.41,357.10 173.90,289.30 177.51,256.70 C181.26,224.79 188.80,164.83 188.50,163.50 C188.24,162.27 187.59,161.11 187.50,159.85 C187.41,158.22 188.81,157.31 190.90,157.26 C198.99,157.17 210.59,157.20 214.09,157.32 C216.24,157.37 217.15,157.87 217.03,159.12 C216.59,162.80 217.03,166.91 217.14,168.08 C220.25,196.34 227.44,260.64 231.52,296.68 C235.36,331.39 242.66,397.59 246.10,429.09 C249.70,462.90 255.55,516.21 256.50,517.50 C257.02,518.15 257.68,518.46 258.48,518.44 C259.46,518.40 262.16,517.40 264.50,517.50 C267.03,517.57 270.53,518.78 271.82,518.77 C273.48,518.74 274.70,517.23 274.91,515.50 C274.94,515.22 277.53,499.28 278.43,492.89 C282.41,457.51 290.17,389.45 293.95,356.77 C297.69,325.50 305.26,259.87 309.09,225.51 C314.10,178.46 317.09,159.79 317.11,159.52 C317.32,157.78 318.31,156.34 319.88,155.99 C320.95,155.78 325.26,156.26 325.50,156.50 C326.85,157.97 325.83,165.05 325.68,166.25 C322.08,196.00 314.23,260.73 309.99,295.71 C306.11,327.57 298.60,389.58 294.96,419.73 C291.27,450.24 283.78,512.08 279.98,543.40 C275.83,576.84 267.80,641.78 263.92,673.28 C261.89,690.99 257.96,727.48 256.88,733.81 C256.65,735.21 255.87,736.63 255.01,736.91 C254.27,737.12 244.59,736.30 242.20,736.33 C241.35,736.35 229.17,736.64 228.50,736.50 C226.70,736.10 225.44,735.54 224.73,734.83 C223.77,733.83 222.05,719.32 221.40,713.84 C217.76,681.24 210.06,612.32 206.00,576.02 C201.98,540.61 194.87,478.53 191.77,451.85 C190.75,443.83 188.25,424.98 188.50,423.50 C188.70,422.28 189.25,421.12 189.33,419.89 C189.40,418.31 188.10,417.17 186.41,417.07 C184.79,417.00 175.57,416.56 173.03,416.25 C170.60,415.99 169.15,416.36 168.50,417.50 C167.84,418.76 158.06,503.64 154.04,539.90 C149.91,576.20 142.04,644.28 138.31,676.07 C133.04,720.90 131.82,734.20 131.46,734.57 C130.45,735.56 126.71,736.73 124.82,736.89 C118.62,737.35 102.92,736.74 101.89,736.72 C99.79,736.64 98.74,736.10 98.52,734.86 C98.40,734.08 89.10,649.57 84.94,613.66 C81.15,580.53 73.88,516.84 70.39,486.28 C66.89,455.94 59.82,394.87 56.24,364.13 C52.41,330.96 44.50,262.01 40.42,226.23 C38.68,210.98 34.53,174.86 34.50,174.50 C34.36,172.96 33.80,166.89 32.48,163.16 C31.73,160.98 31.39,159.65 31.45,159.16 C31.61,158.07 32.29,157.18 33.50,156.50 Z" fill="inherit" stroke="inherit" stroke-width="24.80" stroke-opacity="1.00" stroke-linejoin="round"/>
<path d="M827.50,736.50 C824.01,719.00 822.08,703.11 820.41,679.03 C818.52,645.04 814.69,580.23 812.74,549.42 C811.39,534.65 809.17,518.11 807.57,512.49 C805.97,506.98 801.38,495.84 798.05,489.97 C794.67,484.08 783.75,468.99 781.50,466.50 C778.25,462.93 770.71,456.16 769.14,454.94 C767.61,453.73 767.42,453.32 767.50,451.50 C767.58,450.28 766.69,440.68 766.90,438.29 C767.08,436.62 768.18,433.87 769.13,432.87 C770.08,431.92 777.21,428.86 780.02,426.73 C785.50,422.48 794.01,412.56 798.90,405.91 C803.78,399.19 809.68,386.33 812.62,377.05 C814.41,371.15 818.39,353.94 820.05,345.56 C821.45,337.69 823.93,320.71 824.34,313.53 C824.73,306.42 823.54,285.96 823.50,285.50 C822.64,276.13 821.61,268.09 819.74,257.66 C817.73,246.70 814.91,234.85 812.30,227.44 C809.82,220.42 803.85,207.79 799.88,201.33 C795.43,194.11 786.21,181.86 781.50,177.50 C775.91,172.38 763.90,165.46 756.09,161.69 C753.27,160.35 747.47,158.28 745.16,157.74 C739.69,156.52 699.97,156.46 682.78,156.48 C665.28,156.51 631.12,156.50 631.01,156.52 C629.80,156.75 629.41,157.75 629.49,159.86 C629.51,160.28 629.22,231.63 629.14,259.42 C629.07,293.04 628.94,366.09 628.88,405.53 C628.84,449.14 628.81,531.82 628.82,570.89 C628.88,604.14 629.05,664.83 629.17,692.26 C629.24,703.80 629.49,735.46 629.50,735.50 C629.88,736.42 630.50,736.98 631.36,737.18 C632.38,737.40 642.29,736.40 645.45,736.34 C662.28,736.57 685.09,736.65 685.15,736.65 C687.15,736.64 688.85,735.92 689.19,734.73 C689.27,734.42 688.48,725.72 688.46,723.58 C688.38,697.38 688.32,633.42 688.34,595.65 C688.41,556.55 688.49,490.00 688.51,462.56 C688.50,452.54 688.41,449.03 689.50,448.50 C689.86,448.35 713.03,448.25 718.92,448.72 C723.57,449.12 730.49,450.52 733.36,452.05 C735.45,453.20 740.09,458.41 741.50,460.50 C744.66,465.24 750.41,479.22 752.14,487.34 C753.38,493.46 755.92,508.63 756.57,515.36 C757.75,527.83 757.70,564.07 757.50,579.65 C757.48,586.29 758.52,591.36 758.49,599.90 C758.32,615.59 758.38,648.31 759.07,665.68 C759.82,678.09 762.47,708.23 763.75,718.67 C764.37,724.50 767.16,736.05 767.50,736.50 C768.16,737.30 770.72,736.67 771.50,736.50 C772.34,736.31 810.63,735.73 818.39,735.89 C821.60,736.07 828.96,736.50 831.75,737.82 C833.35,738.60 837.56,743.96 839.86,745.05 C840.22,745.21 840.76,745.36 841.50,745.50" fill="inherit" stroke="inherit" stroke-width="24.80" stroke-opacity="1.00" stroke-linejoin="round"/>
<path d="M1064.50,157.50 C1054.53,186.23 1033.53,246.23 1022.50,277.50 C1018.75,288.07 1013.14,303.66 1011.28,308.68 C1009.37,313.86 1005.67,329.53 1005.30,332.49 C1004.46,339.60 1005.70,351.31 1006.88,358.05 C1008.50,366.14 1028.93,447.45 1037.17,481.04 C1045.16,514.13 1062.63,586.70 1072.10,626.20 C1079.93,658.92 1093.13,714.07 1098.50,736.50" fill="inerhit" stroke="inherit" stroke-width="24.80" stroke-opacity="1.00" stroke-linejoin="round"/>
<path d="M454.50,174.50 C456.78,174.00 463.58,173.88 468.48,174.13 C474.00,174.44 479.00,175.11 481.72,176.16 C484.35,177.22 489.58,181.84 491.18,183.98 C493.23,186.77 496.48,193.58 497.46,195.90 C500.39,202.97 503.18,216.95 504.74,227.79 C506.11,239.11 509.36,274.77 509.99,286.89 C511.12,318.16 512.69,370.38 512.49,382.28 C512.45,389.70 513.51,393.27 513.57,401.43 C513.61,436.59 513.55,497.13 513.50,497.50 C513.00,499.50 512.49,501.56 512.47,506.03 C512.58,521.22 512.50,553.50 511.99,569.39 C510.03,600.51 506.86,646.53 505.50,659.50 C504.15,669.65 500.76,686.56 500.50,687.50 C499.94,689.49 497.50,695.50 496.47,697.94 C494.63,702.65 491.96,707.29 489.24,709.88 C485.99,712.88 480.10,716.42 475.50,717.50 C472.75,718.11 464.31,718.37 460.12,717.95 C456.19,717.54 449.14,715.59 446.33,713.77 C443.63,711.96 440.08,707.14 438.06,703.54 C435.21,698.35 429.50,678.69 428.84,675.18 C426.40,661.47 424.08,637.59 423.09,626.95 C422.21,616.21 420.60,573.29 420.09,554.91 C419.59,519.76 418.83,450.95 418.57,417.30 C418.48,397.33 419.60,388.87 419.41,372.26 C419.43,354.12 420.17,323.11 420.62,307.44 C421.34,291.53 423.48,255.15 424.84,242.17 C425.76,234.67 427.81,221.25 428.92,215.29 C430.61,206.74 435.49,193.22 439.01,186.91 C440.64,184.07 445.45,178.75 448.12,177.09 C449.51,176.26 452.96,174.86 454.50,174.50 Z" fill="inherit" stroke="inherit" stroke-width="24.80" stroke-opacity="1.00" stroke-linejoin="round"/>
<path d="M689.50,192.50 C690.82,191.97 715.39,192.52 720.65,192.89 C726.49,193.35 733.65,194.46 736.58,195.76 C737.85,196.33 743.61,200.52 745.45,202.38 C748.16,205.15 751.70,209.35 753.52,212.60 C755.98,217.09 761.12,232.28 762.48,238.21 C764.29,246.16 765.91,260.02 766.66,270.22 C767.33,282.14 767.65,321.46 767.01,334.25 C766.30,344.31 764.43,358.06 763.45,364.89 C762.00,373.73 758.83,385.38 756.50,390.50 C755.65,392.36 752.06,398.88 750.15,401.99 C748.50,404.65 743.58,410.10 741.43,411.67 C738.92,413.47 732.60,415.91 729.82,416.47 C721.50,418.11 690.72,416.73 690.70,416.73 C688.73,416.63 687.93,416.14 688.02,414.92 C688.54,409.96 688.72,378.85 688.78,364.38 C688.83,325.08 688.78,252.89 688.68,219.99 C688.64,214.08 688.49,199.11 688.10,197.07 C687.66,194.64 688.10,193.13 689.50,192.50 Z" fill="inherit" stroke="inherit" stroke-width="24.80" stroke-opacity="1.00" stroke-linejoin="round"/>
</g>
</svg>
